<mxfile host="app.diagrams.net" modified="2023-11-10T10:08:45.851Z" agent="Mozilla/5.0 (Macintosh; Intel Mac OS X 10.15; rv:109.0) Gecko/20100101 Firefox/119.0" etag="sRmF9nVMapn6FziLzIaI" version="22.1.0" type="github">
  <diagram name="Page-1" id="982gyeF62y9UsF95akiq">
    <mxGraphModel dx="1067" dy="663" grid="1" gridSize="10" guides="1" tooltips="1" connect="1" arrows="1" fold="1" page="1" pageScale="1" pageWidth="1210" pageHeight="819" math="0" shadow="0">
      <root>
        <mxCell id="0" />
        <mxCell id="1" parent="0" />
        <mxCell id="JIdOVKg0k5BsWk1WgtoK-1" value="&lt;div align=&quot;left&quot;&gt;&lt;font style=&quot;font-size: 18px;&quot;&gt;Automated&lt;/font&gt;&lt;/div&gt;&lt;div align=&quot;left&quot;&gt;&lt;font style=&quot;font-size: 18px;&quot;&gt;Inputset&lt;/font&gt;&lt;/div&gt;&lt;div align=&quot;left&quot;&gt;&lt;font style=&quot;font-size: 18px;&quot;&gt;Minimizer&lt;/font&gt;&lt;/div&gt;&lt;div align=&quot;left&quot;&gt;&lt;font style=&quot;font-size: 18px;&quot;&gt;(AIM)&lt;/font&gt;&lt;/div&gt;" style="verticalAlign=top;align=left;spacingTop=8;spacingLeft=2;spacingRight=12;shape=cube;size=10;direction=south;fontStyle=4;html=1;rounded=0;shadow=0;comic=0;labelBackgroundColor=none;strokeWidth=1;fontFamily=Verdana;fontSize=12;fillColor=none;" parent="1" vertex="1">
          <mxGeometry x="160" y="310" width="890" height="490" as="geometry" />
        </mxCell>
        <mxCell id="JIdOVKg0k5BsWk1WgtoK-4" value="&lt;font style=&quot;font-size: 15px;&quot;&gt;initial&lt;br&gt;input set&lt;/font&gt;" style="text;html=1;align=center;verticalAlign=middle;resizable=0;points=[];autosize=1;strokeColor=none;fillColor=none;" parent="1" vertex="1">
          <mxGeometry x="20" y="186" width="80" height="50" as="geometry" />
        </mxCell>
        <mxCell id="JIdOVKg0k5BsWk1WgtoK-7" value="&lt;font style=&quot;font-size: 15px;&quot;&gt;pre-processed&lt;br&gt;input set&lt;br&gt;&lt;/font&gt;" style="text;html=1;align=center;verticalAlign=middle;resizable=0;points=[];autosize=1;strokeColor=none;fillColor=none;" parent="1" vertex="1">
          <mxGeometry x="448.31999999999994" y="481" width="120" height="50" as="geometry" />
        </mxCell>
        <mxCell id="JIdOVKg0k5BsWk1WgtoK-9" value="Output Clustering" style="points=[[0.25,0,0],[0.5,0,0],[0.75,0,0],[1,0.25,0],[1,0.5,0],[1,0.75,0],[0.75,1,0],[0.5,1,0],[0.25,1,0],[0,0.75,0],[0,0.5,0],[0,0.25,0]];shape=mxgraph.bpmn.task;whiteSpace=wrap;rectStyle=rounded;size=10;html=1;taskMarker=abstract;strokeColor=#121212;fontSize=15;fillColor=#fdfcfc;" parent="1" vertex="1">
          <mxGeometry x="200" y="680" width="160" height="80" as="geometry" />
        </mxCell>
        <mxCell id="JIdOVKg0k5BsWk1WgtoK-11" value="Action Clustering" style="points=[[0.25,0,0],[0.5,0,0],[0.75,0,0],[1,0.25,0],[1,0.5,0],[1,0.75,0],[0.75,1,0],[0.5,1,0],[0.25,1,0],[0,0.75,0],[0,0.5,0],[0,0.25,0]];shape=mxgraph.bpmn.task;whiteSpace=wrap;rectStyle=rounded;size=10;html=1;taskMarker=abstract;strokeColor=#121212;fontSize=15;fillColor=#fdfcfc;" parent="1" vertex="1">
          <mxGeometry x="520" y="680" width="160" height="80" as="geometry" />
        </mxCell>
        <mxCell id="JIdOVKg0k5BsWk1WgtoK-13" value="" style="sketch=0;pointerEvents=1;shadow=0;dashed=0;html=1;strokeColor=#000000;fillColor=#000000;labelPosition=center;verticalLabelPosition=bottom;verticalAlign=top;outlineConnect=0;align=center;shape=mxgraph.office.concepts.documents;fontSize=15;fontColor=#ffffff;" parent="1" vertex="1">
          <mxGeometry x="1145" y="608" width="30" height="40" as="geometry" />
        </mxCell>
        <mxCell id="JIdOVKg0k5BsWk1WgtoK-15" value="output classes" style="text;html=1;align=center;verticalAlign=middle;resizable=0;points=[];autosize=1;strokeColor=none;fillColor=none;fontSize=15;" parent="1" vertex="1">
          <mxGeometry x="380.00000000000017" y="686" width="120" height="30" as="geometry" />
        </mxCell>
        <mxCell id="JIdOVKg0k5BsWk1WgtoK-20" value="action&lt;br&gt;subclasses" style="text;html=1;align=center;verticalAlign=middle;resizable=0;points=[];autosize=1;strokeColor=none;fillColor=none;fontSize=15;" parent="1" vertex="1">
          <mxGeometry x="634" y="476" width="100" height="50" as="geometry" />
        </mxCell>
        <mxCell id="JIdOVKg0k5BsWk1WgtoK-22" value="Genetic Algorithm " style="points=[[0.25,0,0],[0.5,0,0],[0.75,0,0],[1,0.25,0],[1,0.5,0],[1,0.75,0],[0.75,1,0],[0.5,1,0],[0.25,1,0],[0,0.75,0],[0,0.5,0],[0,0.25,0]];shape=mxgraph.bpmn.task;whiteSpace=wrap;rectStyle=rounded;size=10;html=1;taskMarker=abstract;strokeColor=#121212;fontSize=15;fillColor=#fdfcfc;" parent="1" vertex="1">
          <mxGeometry x="760" y="520" width="160" height="80" as="geometry" />
        </mxCell>
        <mxCell id="JIdOVKg0k5BsWk1WgtoK-23" value="" style="ellipse;html=1;shape=endState;fillColor=#000000;strokeColor=#000000;fontSize=15;direction=north;" parent="1" vertex="1">
          <mxGeometry x="1140" y="700" width="40" height="40" as="geometry" />
        </mxCell>
        <mxCell id="JIdOVKg0k5BsWk1WgtoK-24" value="&lt;div&gt;minimized&lt;/div&gt;&lt;div&gt;input set&lt;br&gt;&lt;/div&gt;" style="text;html=1;align=center;verticalAlign=middle;resizable=0;points=[];autosize=1;strokeColor=none;fillColor=none;fontSize=15;" parent="1" vertex="1">
          <mxGeometry x="1115" y="648" width="90" height="50" as="geometry" />
        </mxCell>
        <mxCell id="JIdOVKg0k5BsWk1WgtoK-25" value="necessary &lt;br&gt;inputs" style="text;html=1;align=center;verticalAlign=middle;resizable=0;points=[];autosize=1;strokeColor=none;fillColor=none;fontSize=15;" parent="1" vertex="1">
          <mxGeometry x="953" y="473" width="90" height="50" as="geometry" />
        </mxCell>
        <mxCell id="JIdOVKg0k5BsWk1WgtoK-27" value="Post-processing" style="points=[[0.25,0,0],[0.5,0,0],[0.75,0,0],[1,0.25,0],[1,0.5,0],[1,0.75,0],[0.75,1,0],[0.5,1,0],[0.25,1,0],[0,0.75,0],[0,0.5,0],[0,0.25,0]];shape=mxgraph.bpmn.task;whiteSpace=wrap;rectStyle=rounded;size=10;html=1;taskMarker=abstract;strokeColor=#121212;fontSize=15;fillColor=#fdfcfc;" parent="1" vertex="1">
          <mxGeometry x="840" y="680" width="160" height="80" as="geometry" />
        </mxCell>
        <mxCell id="JIdOVKg0k5BsWk1WgtoK-28" value="input set &lt;br&gt;components" style="text;html=1;align=center;verticalAlign=middle;resizable=0;points=[];autosize=1;strokeColor=none;fillColor=none;fontSize=15;" parent="1" vertex="1">
          <mxGeometry x="773.87" y="470" width="100" height="50" as="geometry" />
        </mxCell>
        <mxCell id="JIdOVKg0k5BsWk1WgtoK-29" value="minimized&lt;br&gt; components" style="text;html=1;align=center;verticalAlign=middle;resizable=0;points=[];autosize=1;strokeColor=none;fillColor=none;fontSize=15;" parent="1" vertex="1">
          <mxGeometry x="773.87" y="630" width="100" height="50" as="geometry" />
        </mxCell>
        <mxCell id="mcX0Vz2PuJV1OILhhYj1-5" value="" style="sketch=0;outlineConnect=0;fillColor=#6a00ff;strokeColor=#ff2600;dashed=0;verticalLabelPosition=bottom;verticalAlign=top;align=center;html=1;fontSize=12;fontStyle=0;aspect=fixed;pointerEvents=1;shape=mxgraph.aws4.documents2;fontColor=#ffffff;" parent="1" vertex="1">
          <mxGeometry x="425.68000000000006" y="652" width="26.63" height="31" as="geometry" />
        </mxCell>
        <mxCell id="XhcfFflQ-kZcFnGUOM56-1" value="" style="sketch=0;outlineConnect=0;fillColor=#ff5353;strokeColor=#C73500;dashed=0;verticalLabelPosition=bottom;verticalAlign=top;align=center;html=1;fontSize=12;fontStyle=0;aspect=fixed;pointerEvents=1;shape=mxgraph.aws4.documents2;fontColor=#000000;" parent="1" vertex="1">
          <mxGeometry x="670.6800000000001" y="445" width="26.63" height="31" as="geometry" />
        </mxCell>
        <mxCell id="XhcfFflQ-kZcFnGUOM56-5" value="" style="sketch=0;outlineConnect=0;fontColor=#232F3E;gradientColor=none;fillColor=#000000;strokeColor=none;dashed=0;verticalLabelPosition=bottom;verticalAlign=top;align=center;html=1;fontSize=12;fontStyle=0;aspect=fixed;pointerEvents=1;shape=mxgraph.aws4.documents;" parent="1" vertex="1">
          <mxGeometry x="40.94999999999999" y="149" width="36.1" height="44" as="geometry" />
        </mxCell>
        <mxCell id="XhcfFflQ-kZcFnGUOM56-6" value="" style="sketch=0;outlineConnect=0;fontColor=#ffffff;fillColor=#a20025;strokeColor=#6F0000;dashed=0;verticalLabelPosition=bottom;verticalAlign=top;align=center;html=1;fontSize=12;fontStyle=0;aspect=fixed;pointerEvents=1;shape=mxgraph.aws4.documents;" parent="1" vertex="1">
          <mxGeometry x="493.54999999999995" y="445" width="29.54" height="36" as="geometry" />
        </mxCell>
        <mxCell id="XhcfFflQ-kZcFnGUOM56-13" value="" style="sketch=0;pointerEvents=1;shadow=0;dashed=0;html=1;strokeColor=none;fillColor=#804000;labelPosition=center;verticalLabelPosition=bottom;verticalAlign=top;outlineConnect=0;align=center;shape=mxgraph.office.concepts.document;" parent="1" vertex="1">
          <mxGeometry x="986.48" y="447" width="23.05" height="28" as="geometry" />
        </mxCell>
        <mxCell id="XhcfFflQ-kZcFnGUOM56-14" value="" style="sketch=0;outlineConnect=0;fontColor=#ffffff;fillColor=#008a00;strokeColor=#005700;dashed=0;verticalLabelPosition=bottom;verticalAlign=top;align=center;html=1;fontSize=12;fontStyle=0;aspect=fixed;pointerEvents=1;shape=mxgraph.aws4.documents3;" parent="1" vertex="1">
          <mxGeometry x="798.87" y="447" width="21.92" height="30" as="geometry" />
        </mxCell>
        <mxCell id="XhcfFflQ-kZcFnGUOM56-16" value="" style="sketch=0;outlineConnect=0;fontColor=#ffffff;fillColor=#008a00;strokeColor=#005700;dashed=0;verticalLabelPosition=bottom;verticalAlign=top;align=center;html=1;fontSize=12;fontStyle=0;aspect=fixed;pointerEvents=1;shape=mxgraph.aws4.documents3;" parent="1" vertex="1">
          <mxGeometry x="828.87" y="447" width="21.92" height="30" as="geometry" />
        </mxCell>
        <mxCell id="XhcfFflQ-kZcFnGUOM56-18" value="" style="sketch=0;pointerEvents=1;shadow=0;dashed=0;html=1;strokeColor=none;fillColor=#3ea7e6;labelPosition=center;verticalLabelPosition=bottom;verticalAlign=top;outlineConnect=0;align=center;shape=mxgraph.office.concepts.document;" parent="1" vertex="1">
          <mxGeometry x="797.7400000000001" y="608" width="23.05" height="28" as="geometry" />
        </mxCell>
        <mxCell id="XhcfFflQ-kZcFnGUOM56-19" value="" style="sketch=0;pointerEvents=1;shadow=0;dashed=0;html=1;strokeColor=none;fillColor=#3ea7e6;labelPosition=center;verticalLabelPosition=bottom;verticalAlign=top;outlineConnect=0;align=center;shape=mxgraph.office.concepts.document;" parent="1" vertex="1">
          <mxGeometry x="828.87" y="608" width="23.05" height="28" as="geometry" />
        </mxCell>
        <mxCell id="MYr1V2kwetyBuqe4WK7h-1" value="" style="strokeWidth=2;html=1;shape=mxgraph.flowchart.start_2;whiteSpace=wrap;fillColor=#000000;" parent="1" vertex="1">
          <mxGeometry x="50" y="229" width="20" height="20" as="geometry" />
        </mxCell>
        <mxCell id="MYr1V2kwetyBuqe4WK7h-4" value="Pre-processing" style="points=[[0.25,0,0],[0.5,0,0],[0.75,0,0],[1,0.25,0],[1,0.5,0],[1,0.75,0],[0.75,1,0],[0.5,1,0],[0.25,1,0],[0,0.75,0],[0,0.5,0],[0,0.25,0]];shape=mxgraph.bpmn.task;whiteSpace=wrap;rectStyle=rounded;size=10;html=1;taskMarker=abstract;strokeColor=#121212;fontSize=15;fillColor=#fdfcfc;" parent="1" vertex="1">
          <mxGeometry x="360" y="360" width="160" height="80" as="geometry" />
        </mxCell>
        <mxCell id="MYr1V2kwetyBuqe4WK7h-8" value="" style="shape=note;whiteSpace=wrap;html=1;backgroundOutline=1;darkOpacity=0.05;" parent="1" vertex="1">
          <mxGeometry x="40" y="20" width="40" height="60" as="geometry" />
        </mxCell>
        <mxCell id="MYr1V2kwetyBuqe4WK7h-9" value="&lt;font style=&quot;font-size: 15px;&quot;&gt;considered MRs&lt;/font&gt;" style="text;whiteSpace=wrap;html=1;" parent="1" vertex="1">
          <mxGeometry x="4" y="80" width="120" height="30" as="geometry" />
        </mxCell>
        <mxCell id="MYr1V2kwetyBuqe4WK7h-10" value="" style="strokeWidth=2;html=1;shape=mxgraph.flowchart.start_2;whiteSpace=wrap;fillColor=#000000;" parent="1" vertex="1">
          <mxGeometry x="50" y="110" width="20" height="20" as="geometry" />
        </mxCell>
        <mxCell id="MYr1V2kwetyBuqe4WK7h-11" value="Data Collection" style="points=[[0.25,0,0],[0.5,0,0],[0.75,0,0],[1,0.25,0],[1,0.5,0],[1,0.75,0],[0.75,1,0],[0.5,1,0],[0.25,1,0],[0,0.75,0],[0,0.5,0],[0,0.25,0]];shape=mxgraph.bpmn.task;whiteSpace=wrap;rectStyle=rounded;size=10;html=1;taskMarker=abstract;strokeColor=#121212;fontSize=15;fillColor=#fdfcfc;" parent="1" vertex="1">
          <mxGeometry x="360" y="80" width="160" height="80" as="geometry" />
        </mxCell>
        <mxCell id="MYr1V2kwetyBuqe4WK7h-12" value="" style="endArrow=classic;html=1;rounded=0;entryX=0;entryY=0.5;entryDx=0;entryDy=0;entryPerimeter=0;exitX=1;exitY=0.5;exitDx=0;exitDy=0;exitPerimeter=0;" parent="1" source="MYr1V2kwetyBuqe4WK7h-10" target="MYr1V2kwetyBuqe4WK7h-11" edge="1">
          <mxGeometry width="50" height="50" relative="1" as="geometry">
            <mxPoint x="-20" y="290" as="sourcePoint" />
            <mxPoint x="415" y="551" as="targetPoint" />
          </mxGeometry>
        </mxCell>
        <mxCell id="MYr1V2kwetyBuqe4WK7h-15" value="outputs" style="text;html=1;align=center;verticalAlign=middle;resizable=0;points=[];autosize=1;strokeColor=none;fillColor=none;fontSize=15;" parent="1" vertex="1">
          <mxGeometry x="473.32000000000016" y="229" width="70" height="30" as="geometry" />
        </mxCell>
        <mxCell id="MYr1V2kwetyBuqe4WK7h-16" value="" style="sketch=0;outlineConnect=0;fillColor=#df00df;strokeColor=#C73500;dashed=0;verticalLabelPosition=bottom;verticalAlign=top;align=center;html=1;fontSize=12;fontStyle=0;aspect=fixed;pointerEvents=1;shape=mxgraph.aws4.documents2;fontColor=#000000;" parent="1" vertex="1">
          <mxGeometry x="495.01" y="198" width="26.63" height="31" as="geometry" />
        </mxCell>
        <mxCell id="MYr1V2kwetyBuqe4WK7h-17" value="" style="endArrow=classic;html=1;rounded=0;exitX=0.75;exitY=1;exitDx=0;exitDy=0;exitPerimeter=0;entryX=0.75;entryY=0;entryDx=0;entryDy=0;entryPerimeter=0;" parent="1" source="MYr1V2kwetyBuqe4WK7h-11" target="MYr1V2kwetyBuqe4WK7h-4" edge="1">
          <mxGeometry width="50" height="50" relative="1" as="geometry">
            <mxPoint x="-40" y="290" as="sourcePoint" />
            <mxPoint x="330" y="330" as="targetPoint" />
          </mxGeometry>
        </mxCell>
        <mxCell id="MYr1V2kwetyBuqe4WK7h-21" value="" style="endArrow=classic;html=1;rounded=0;" parent="1" source="JIdOVKg0k5BsWk1WgtoK-9" target="JIdOVKg0k5BsWk1WgtoK-11" edge="1">
          <mxGeometry width="50" height="50" relative="1" as="geometry">
            <mxPoint x="150" y="529" as="sourcePoint" />
            <mxPoint x="320" y="579" as="targetPoint" />
          </mxGeometry>
        </mxCell>
        <mxCell id="MYr1V2kwetyBuqe4WK7h-22" value="pre-processed&lt;br&gt;outputs" style="text;html=1;align=center;verticalAlign=middle;resizable=0;points=[];autosize=1;strokeColor=none;fillColor=none;fontSize=15;" parent="1" vertex="1">
          <mxGeometry x="310.6900000000001" y="481" width="120" height="50" as="geometry" />
        </mxCell>
        <mxCell id="MYr1V2kwetyBuqe4WK7h-23" value="" style="sketch=0;outlineConnect=0;fillColor=#ff9300;strokeColor=#C73500;dashed=0;verticalLabelPosition=bottom;verticalAlign=top;align=center;html=1;fontSize=12;fontStyle=0;aspect=fixed;pointerEvents=1;shape=mxgraph.aws4.documents2;fontColor=#000000;" parent="1" vertex="1">
          <mxGeometry x="357.36999999999995" y="450" width="26.63" height="31" as="geometry" />
        </mxCell>
        <mxCell id="MYr1V2kwetyBuqe4WK7h-24" value="" style="endArrow=classic;html=1;rounded=0;entryX=0.75;entryY=0;entryDx=0;entryDy=0;entryPerimeter=0;exitX=0;exitY=0.5;exitDx=0;exitDy=0;exitPerimeter=0;" parent="1" source="MYr1V2kwetyBuqe4WK7h-4" target="JIdOVKg0k5BsWk1WgtoK-9" edge="1">
          <mxGeometry width="50" height="50" relative="1" as="geometry">
            <mxPoint x="430" y="250" as="sourcePoint" />
            <mxPoint x="430" y="370" as="targetPoint" />
            <Array as="points">
              <mxPoint x="320" y="400" />
            </Array>
          </mxGeometry>
        </mxCell>
        <mxCell id="MYr1V2kwetyBuqe4WK7h-30" value="&lt;div&gt;Problem Reduction&lt;/div&gt;&lt;div&gt;(IMPRO)&lt;br&gt;&lt;/div&gt;" style="points=[[0.25,0,0],[0.5,0,0],[0.75,0,0],[1,0.25,0],[1,0.5,0],[1,0.75,0],[0.75,1,0],[0.5,1,0],[0.25,1,0],[0,0.75,0],[0,0.5,0],[0,0.25,0]];shape=mxgraph.bpmn.task;whiteSpace=wrap;rectStyle=rounded;size=10;html=1;taskMarker=abstract;strokeColor=#121212;fontSize=15;fillColor=#fdfcfc;" parent="1" vertex="1">
          <mxGeometry x="840" y="360" width="160" height="80" as="geometry" />
        </mxCell>
        <mxCell id="MYr1V2kwetyBuqe4WK7h-31" value="" style="endArrow=classic;html=1;rounded=0;exitX=0.75;exitY=0;exitDx=0;exitDy=0;exitPerimeter=0;entryX=0;entryY=0.75;entryDx=0;entryDy=0;entryPerimeter=0;" parent="1" source="JIdOVKg0k5BsWk1WgtoK-11" target="MYr1V2kwetyBuqe4WK7h-30" edge="1">
          <mxGeometry width="50" height="50" relative="1" as="geometry">
            <mxPoint x="402" y="450" as="sourcePoint" />
            <mxPoint x="288" y="610" as="targetPoint" />
            <Array as="points">
              <mxPoint x="640" y="420" />
            </Array>
          </mxGeometry>
        </mxCell>
        <mxCell id="MYr1V2kwetyBuqe4WK7h-33" value="costs" style="text;html=1;align=center;verticalAlign=middle;resizable=0;points=[];autosize=1;strokeColor=none;fillColor=none;fontSize=15;" parent="1" vertex="1">
          <mxGeometry x="600" y="226.5" width="60" height="30" as="geometry" />
        </mxCell>
        <mxCell id="MYr1V2kwetyBuqe4WK7h-36" value="" style="endArrow=classic;html=1;rounded=0;entryX=0.75;entryY=0;entryDx=0;entryDy=0;entryPerimeter=0;exitX=0.25;exitY=1;exitDx=0;exitDy=0;exitPerimeter=0;" parent="1" source="MYr1V2kwetyBuqe4WK7h-30" target="JIdOVKg0k5BsWk1WgtoK-22" edge="1">
          <mxGeometry width="50" height="50" relative="1" as="geometry">
            <mxPoint x="850" y="430" as="sourcePoint" />
            <mxPoint x="850" y="520" as="targetPoint" />
          </mxGeometry>
        </mxCell>
        <mxCell id="MYr1V2kwetyBuqe4WK7h-37" value="" style="endArrow=classic;html=1;rounded=0;exitX=0.75;exitY=1;exitDx=0;exitDy=0;exitPerimeter=0;entryX=0.25;entryY=0;entryDx=0;entryDy=0;entryPerimeter=0;" parent="1" source="JIdOVKg0k5BsWk1WgtoK-22" target="JIdOVKg0k5BsWk1WgtoK-27" edge="1">
          <mxGeometry width="50" height="50" relative="1" as="geometry">
            <mxPoint x="820" y="610" as="sourcePoint" />
            <mxPoint x="880" y="650" as="targetPoint" />
          </mxGeometry>
        </mxCell>
        <mxCell id="MYr1V2kwetyBuqe4WK7h-38" value="" style="endArrow=classic;html=1;rounded=0;entryX=0.75;entryY=0;entryDx=0;entryDy=0;entryPerimeter=0;exitX=0.75;exitY=1;exitDx=0;exitDy=0;exitPerimeter=0;" parent="1" source="MYr1V2kwetyBuqe4WK7h-30" target="JIdOVKg0k5BsWk1WgtoK-27" edge="1">
          <mxGeometry width="50" height="50" relative="1" as="geometry">
            <mxPoint x="950" y="450" as="sourcePoint" />
            <mxPoint x="950" y="530" as="targetPoint" />
          </mxGeometry>
        </mxCell>
        <mxCell id="MYr1V2kwetyBuqe4WK7h-41" value="" style="endArrow=classic;html=1;rounded=0;" parent="1" source="JIdOVKg0k5BsWk1WgtoK-27" target="JIdOVKg0k5BsWk1WgtoK-23" edge="1">
          <mxGeometry width="50" height="50" relative="1" as="geometry">
            <mxPoint x="890" y="450" as="sourcePoint" />
            <mxPoint x="890" y="530" as="targetPoint" />
          </mxGeometry>
        </mxCell>
        <mxCell id="MYr1V2kwetyBuqe4WK7h-43" value="" style="sketch=0;outlineConnect=0;fillColor=#0432ff;strokeColor=#000099;dashed=0;verticalLabelPosition=bottom;verticalAlign=top;align=center;html=1;fontSize=12;fontStyle=0;aspect=fixed;pointerEvents=1;shape=mxgraph.aws4.documents2;fontColor=#ffffff;" parent="1" vertex="1">
          <mxGeometry x="616.6800000000001" y="198" width="26.63" height="31" as="geometry" />
        </mxCell>
        <mxCell id="MYr1V2kwetyBuqe4WK7h-47" value="" style="line;strokeWidth=4;html=1;" parent="1" vertex="1">
          <mxGeometry x="521.64" y="335" width="158.36" height="10" as="geometry" />
        </mxCell>
        <mxCell id="MYr1V2kwetyBuqe4WK7h-49" value="" style="endArrow=classic;html=1;rounded=0;exitX=1;exitY=0.5;exitDx=0;exitDy=0;exitPerimeter=0;entryX=0.495;entryY=0.5;entryDx=0;entryDy=0;entryPerimeter=0;" parent="1" source="MYr1V2kwetyBuqe4WK7h-11" target="MYr1V2kwetyBuqe4WK7h-47" edge="1">
          <mxGeometry width="50" height="50" relative="1" as="geometry">
            <mxPoint x="80" y="130" as="sourcePoint" />
            <mxPoint x="690" y="250" as="targetPoint" />
            <Array as="points">
              <mxPoint x="560" y="120" />
              <mxPoint x="600" y="120" />
            </Array>
          </mxGeometry>
        </mxCell>
        <mxCell id="MYr1V2kwetyBuqe4WK7h-50" value="" style="endArrow=classic;html=1;rounded=0;entryX=0;entryY=0.25;entryDx=0;entryDy=0;entryPerimeter=0;exitX=0.75;exitY=0.5;exitDx=0;exitDy=0;exitPerimeter=0;" parent="1" source="MYr1V2kwetyBuqe4WK7h-47" target="MYr1V2kwetyBuqe4WK7h-30" edge="1">
          <mxGeometry width="50" height="50" relative="1" as="geometry">
            <mxPoint x="80" y="130" as="sourcePoint" />
            <mxPoint x="370" y="130" as="targetPoint" />
            <Array as="points">
              <mxPoint x="640" y="380" />
            </Array>
          </mxGeometry>
        </mxCell>
        <mxCell id="MYr1V2kwetyBuqe4WK7h-51" value="" style="endArrow=classic;html=1;rounded=0;entryX=1;entryY=0.25;entryDx=0;entryDy=0;entryPerimeter=0;exitX=0.25;exitY=0.5;exitDx=0;exitDy=0;exitPerimeter=0;" parent="1" source="MYr1V2kwetyBuqe4WK7h-47" target="MYr1V2kwetyBuqe4WK7h-4" edge="1">
          <mxGeometry width="50" height="50" relative="1" as="geometry">
            <mxPoint x="80" y="130" as="sourcePoint" />
            <mxPoint x="370" y="130" as="targetPoint" />
            <Array as="points">
              <mxPoint x="561" y="380" />
            </Array>
          </mxGeometry>
        </mxCell>
        <mxCell id="MYr1V2kwetyBuqe4WK7h-54" value="" style="line;strokeWidth=4;html=1;direction=south;" parent="1" vertex="1">
          <mxGeometry x="358.99" y="199" width="10" height="80" as="geometry" />
        </mxCell>
        <mxCell id="MYr1V2kwetyBuqe4WK7h-57" value="" style="endArrow=classic;html=1;rounded=0;exitX=0.25;exitY=0.5;exitDx=0;exitDy=0;exitPerimeter=0;entryX=0.25;entryY=1;entryDx=0;entryDy=0;entryPerimeter=0;" parent="1" source="MYr1V2kwetyBuqe4WK7h-54" target="MYr1V2kwetyBuqe4WK7h-11" edge="1">
          <mxGeometry width="50" height="50" relative="1" as="geometry">
            <mxPoint x="80" y="130" as="sourcePoint" />
            <mxPoint x="360" y="200" as="targetPoint" />
            <Array as="points">
              <mxPoint x="400" y="219" />
            </Array>
          </mxGeometry>
        </mxCell>
        <mxCell id="MYr1V2kwetyBuqe4WK7h-58" value="" style="endArrow=classic;html=1;rounded=0;entryX=0.525;entryY=0.65;entryDx=0;entryDy=0;entryPerimeter=0;exitX=1;exitY=0.5;exitDx=0;exitDy=0;exitPerimeter=0;" parent="1" source="MYr1V2kwetyBuqe4WK7h-1" target="MYr1V2kwetyBuqe4WK7h-54" edge="1">
          <mxGeometry width="50" height="50" relative="1" as="geometry">
            <mxPoint x="80" y="130" as="sourcePoint" />
            <mxPoint x="370" y="130" as="targetPoint" />
          </mxGeometry>
        </mxCell>
        <mxCell id="MYr1V2kwetyBuqe4WK7h-59" value="" style="endArrow=classic;html=1;rounded=0;entryX=0.25;entryY=0;entryDx=0;entryDy=0;entryPerimeter=0;exitX=0.75;exitY=0.5;exitDx=0;exitDy=0;exitPerimeter=0;" parent="1" source="MYr1V2kwetyBuqe4WK7h-54" target="MYr1V2kwetyBuqe4WK7h-4" edge="1">
          <mxGeometry width="50" height="50" relative="1" as="geometry">
            <mxPoint x="230" y="280" as="sourcePoint" />
            <mxPoint x="289" y="251" as="targetPoint" />
            <Array as="points">
              <mxPoint x="400" y="260" />
            </Array>
          </mxGeometry>
        </mxCell>
        <mxCell id="Xf2yQr5F2sfBz2zLLxpo-3" value="Step 1" style="rounded=1;whiteSpace=wrap;html=1;" parent="1" vertex="1">
          <mxGeometry x="360" y="360" width="40" height="21" as="geometry" />
        </mxCell>
        <mxCell id="Xf2yQr5F2sfBz2zLLxpo-5" value="Step 2" style="rounded=1;whiteSpace=wrap;html=1;" parent="1" vertex="1">
          <mxGeometry x="200" y="680" width="40" height="21" as="geometry" />
        </mxCell>
        <mxCell id="Xf2yQr5F2sfBz2zLLxpo-6" value="Step 3" style="rounded=1;whiteSpace=wrap;html=1;" parent="1" vertex="1">
          <mxGeometry x="520" y="680" width="40" height="21" as="geometry" />
        </mxCell>
        <mxCell id="Xf2yQr5F2sfBz2zLLxpo-7" value="Step 4" style="rounded=1;whiteSpace=wrap;html=1;" parent="1" vertex="1">
          <mxGeometry x="840" y="360" width="40" height="21" as="geometry" />
        </mxCell>
        <mxCell id="Xf2yQr5F2sfBz2zLLxpo-8" value="Step 5" style="rounded=1;whiteSpace=wrap;html=1;" parent="1" vertex="1">
          <mxGeometry x="760" y="520" width="40" height="21" as="geometry" />
        </mxCell>
        <mxCell id="Xf2yQr5F2sfBz2zLLxpo-9" value="Step 6" style="rounded=1;whiteSpace=wrap;html=1;" parent="1" vertex="1">
          <mxGeometry x="840" y="680" width="40" height="21" as="geometry" />
        </mxCell>
        <mxCell id="xZxzbVCWY1S-zxH4bG8u-1" value="" style="line;strokeWidth=4;html=1;direction=south;" parent="1" vertex="1">
          <mxGeometry x="535" y="390" width="10" height="60" as="geometry" />
        </mxCell>
        <mxCell id="xZxzbVCWY1S-zxH4bG8u-2" value="" style="endArrow=classic;html=1;rounded=0;entryX=0.5;entryY=0.632;entryDx=0;entryDy=0;entryPerimeter=0;exitX=1;exitY=0.75;exitDx=0;exitDy=0;exitPerimeter=0;" parent="1" source="MYr1V2kwetyBuqe4WK7h-4" target="xZxzbVCWY1S-zxH4bG8u-1" edge="1">
          <mxGeometry width="50" height="50" relative="1" as="geometry">
            <mxPoint x="80" y="249" as="sourcePoint" />
            <mxPoint x="372" y="251" as="targetPoint" />
          </mxGeometry>
        </mxCell>
        <mxCell id="xZxzbVCWY1S-zxH4bG8u-4" value="" style="endArrow=classic;html=1;rounded=0;entryX=0.25;entryY=0;entryDx=0;entryDy=0;entryPerimeter=0;" parent="1" edge="1">
          <mxGeometry width="50" height="50" relative="1" as="geometry">
            <mxPoint x="540" y="440" as="sourcePoint" />
            <mxPoint x="561" y="680" as="targetPoint" />
            <Array as="points">
              <mxPoint x="561" y="440" />
            </Array>
          </mxGeometry>
        </mxCell>
        <mxCell id="xZxzbVCWY1S-zxH4bG8u-5" value="" style="endArrow=classic;html=1;rounded=0;entryX=0;entryY=0.5;entryDx=0;entryDy=0;entryPerimeter=0;" parent="1" target="MYr1V2kwetyBuqe4WK7h-30" edge="1">
          <mxGeometry width="50" height="50" relative="1" as="geometry">
            <mxPoint x="540" y="400" as="sourcePoint" />
            <mxPoint x="820" y="399.5" as="targetPoint" />
          </mxGeometry>
        </mxCell>
      </root>
    </mxGraphModel>
  </diagram>
</mxfile>
